<svg xmlns="http://www.w3.org/2000/svg" version="1.1" xmlns:xlink="http://www.w3.org/1999/xlink" xmlns:svgjs="http://svgjs.dev/svgjs" width="1500" height="666" viewBox="0 0 1500 666"><g transform="matrix(1,0,0,1,-0.9090909090909918,-0.13234108750611995)"><svg viewBox="0 0 396 176" data-background-color="#f8f8f8" preserveAspectRatio="xMidYMid meet" height="666" width="1500" xmlns="http://www.w3.org/2000/svg" xmlns:xlink="http://www.w3.org/1999/xlink"><g id="tight-bounds" transform="matrix(1,0,0,1,0.2400000000000091,0.03497302012173975)"><svg viewBox="0 0 395.52 175.93005395975652" height="175.93005395975652" width="395.52"><g><svg viewBox="0 0 395.52 175.93005395975652" height="175.93005395975652" width="395.52"><g transform="matrix(1,0,0,1,0,126.13906004494923)"><svg viewBox="0 0 395.52 49.79099391480728" height="49.79099391480728" width="395.52"><g id="textblocktransform"><svg viewBox="0 0 395.52 49.79099391480728" height="49.79099391480728" width="395.52" id="textblock"><g><svg viewBox="0 0 395.52 49.79099391480728" height="49.79099391480728" width="395.52"><g transform="matrix(1,0,0,1,0,0)"><svg width="395.52" viewBox="2.35 -38.15 394.35999999999996 49.65" height="49.79099391480728" data-palette-color="#61777f"><path d="M2.35-24.7L7.3-25.25Q7.65-24.45 7.88-23.58 8.1-22.7 8.2-21.85L8.2-21.85Q9.65-23.2 11.55-24.33 13.45-25.45 15.55-25.45L15.55-25.45Q17.85-25.45 19.55-24.5 21.25-23.55 22.25-21.4L22.25-21.4Q23.8-22.95 25.83-24.2 27.85-25.45 30.1-25.45L30.1-25.45Q32.85-25.45 34.48-24.3 36.1-23.15 36.83-21.2 37.55-19.25 37.55-16.65L37.55-16.65 37.55 0 33 0 33-15.55Q33-17 32.77-18.38 32.55-19.75 31.7-20.65 30.85-21.55 29.05-21.55L29.05-21.55Q27.4-21.55 25.75-20.48 24.1-19.4 23-18.3L23-18.3 23 0 18.45 0 18.45-15.55Q18.45-17 18.23-18.38 18-19.75 17.18-20.65 16.35-21.55 14.5-21.55L14.5-21.55Q13.5-21.55 12.38-21.05 11.25-20.55 10.25-19.8 9.25-19.05 8.5-18.35L8.5-18.35 8.5 0 3.95 0 3.95-18Q3.95-19 3.78-20.23 3.6-21.45 3.25-22.65 2.9-23.85 2.35-24.7L2.35-24.7ZM54.1-25.45L54.1-25.45Q58.05-25.45 60.1-23.33 62.15-21.2 62.15-17.25L62.15-17.25 62.15-5.15Q62.15-4 62.55-3.6 62.95-3.2 63.55-3.2L63.55-3.2Q64-3.2 64.5-3.33 65-3.45 65.45-3.65L65.45-3.65 66.35-0.8Q65.5-0.3 64.25 0.08 63 0.45 61.7 0.45L61.7 0.45Q60.3 0.45 59.25-0.28 58.2-1 57.9-2.95L57.9-2.95Q56.45-1.3 54.52-0.38 52.6 0.55 50.4 0.55L50.4 0.55Q47.45 0.55 45.47-1.18 43.5-2.9 43.5-5.95L43.5-5.95Q43.5-8.8 44.85-10.5 46.2-12.2 48.37-13.08 50.55-13.95 53-14.25 55.45-14.55 57.6-14.55L57.6-14.55 57.6-17.35Q57.6-19.4 56.75-20.7 55.9-22 53.55-22L53.55-22Q51.7-22 49.97-21.23 48.25-20.45 46.6-19.05L46.6-19.05 44.45-22.25Q46.55-23.85 49.02-24.65 51.5-25.45 54.1-25.45ZM57.6-9.6L57.6-11.1Q56.3-11.1 54.7-11 53.1-10.9 51.6-10.43 50.1-9.95 49.12-8.95 48.15-7.95 48.15-6.2L48.15-6.2Q48.15-4.65 49.25-3.93 50.35-3.2 51.9-3.2L51.9-3.2Q53.6-3.2 54.87-4.15 56.15-5.1 56.87-6.58 57.6-8.05 57.6-9.6L57.6-9.6ZM77.35-25.5L77.35-25.5Q78.8-25.5 80.1-25.13 81.4-24.75 82.8-24.75L82.8-24.75Q84.75-24.75 86.77-24.98 88.8-25.2 90.95-25.5L90.95-25.5 90-21.75 85.95-21.75Q85.6-21.75 85.25-21.8 84.9-21.85 84.55-21.9L84.55-21.9Q85.4-20.8 85.82-19.58 86.25-18.35 86.25-17.05L86.25-17.05Q86.25-14.55 85.1-12.55 83.95-10.55 81.8-9.43 79.65-8.3 76.7-8.3L76.7-8.3Q75.55-8.3 74.65-7.68 73.75-7.05 73.75-5.75L73.75-5.75Q73.75-4.9 74.25-4.53 74.75-4.15 75.5-4.1 76.25-4.05 77-4.05L77-4.05 81.35-4.05Q82.7-4.05 84.1-3.88 85.5-3.7 86.7-3.18 87.9-2.65 88.62-1.6 89.35-0.55 89.35 1.25L89.35 1.25Q89.35 4 88.22 5.95 87.1 7.9 85.22 9.15 83.35 10.4 81.02 10.95 78.7 11.5 76.35 11.5L76.35 11.5Q74.95 11.5 73.35 11.2 71.75 10.9 70.35 10.18 68.95 9.45 68.07 8.25 67.2 7.05 67.2 5.2L67.2 5.2Q67.2 3.25 68.4 1.75 69.6 0.25 71.2-0.7L71.2-0.7 71.2-0.9Q70.15-1.35 69.5-2.33 68.85-3.3 68.85-4.45L68.85-4.45Q68.85-5.05 69.35-5.6 69.85-6.15 70.65-7.1 71.45-8.05 72.35-9.7L72.35-9.7Q70.55-10.9 69.47-12.78 68.4-14.65 68.4-16.85L68.4-16.85Q68.4-19.3 69.62-21.25 70.85-23.2 72.9-24.35 74.95-25.5 77.35-25.5ZM77.35-22.3L77.35-22.3Q75.6-22.3 74.37-20.73 73.15-19.15 73.15-16.85L73.15-16.85Q73.15-14.5 74.37-12.93 75.6-11.35 77.3-11.35L77.3-11.35Q79.25-11.35 80.4-12.88 81.55-14.4 81.55-16.8L81.55-16.8Q81.55-19.15 80.32-20.73 79.1-22.3 77.35-22.3ZM80.1 0.05L74.4 0.05Q73.45 0.7 72.65 1.93 71.85 3.15 71.85 4.3L71.85 4.3Q71.85 5.5 72.7 6.3 73.55 7.1 74.8 7.5 76.05 7.9 77.1 7.9L77.1 7.9Q78.8 7.9 80.67 7.43 82.55 6.95 83.85 5.83 85.15 4.7 85.15 2.7L85.15 2.7Q85.15 1.4 84.32 0.85 83.5 0.3 82.35 0.18 81.2 0.05 80.1 0.05L80.1 0.05ZM92.49-24.65L97.44-25.3Q97.79-24.45 98.02-23.58 98.24-22.7 98.34-21.8L98.34-21.8Q99.84-23.25 101.89-24.35 103.94-25.45 106.04-25.45L106.04-25.45Q108.84-25.45 110.49-24.33 112.14-23.2 112.89-21.23 113.64-19.25 113.64-16.65L113.64-16.65 113.64 0 109.09 0 109.09-15.45Q109.09-16.9 108.89-18.32 108.69-19.75 107.87-20.65 107.04-21.55 105.14-21.55L105.14-21.55Q104.04-21.55 102.82-21.08 101.59-20.6 100.52-19.88 99.44-19.15 98.64-18.35L98.64-18.35 98.64 0 94.14 0 94.14-17.65Q94.14-18.6 93.99-19.93 93.84-21.25 93.49-22.55 93.14-23.85 92.49-24.65L92.49-24.65ZM120.74-24.85L125.94-24.85 125.94-9.45Q125.94-8.05 126.19-6.63 126.44-5.2 127.27-4.23 128.09-3.25 129.89-3.25L129.89-3.25Q131.69-3.25 133.14-4.03 134.59-4.8 135.49-6.15 136.39-7.5 136.39-9.3L136.39-9.3 136.39-21.95Q136.39-22 136.24-22.68 136.09-23.35 135.94-24.05 135.79-24.75 135.74-24.85L135.74-24.85 140.94-24.85 140.94-5.2Q140.94-4.15 141.29-3.68 141.64-3.2 142.39-3.2L142.39-3.2Q143.09-3.2 144.29-3.65L144.29-3.65 145.19-0.8Q144.19-0.25 142.92 0.1 141.64 0.45 140.49 0.45L140.49 0.45Q139.14 0.45 138.09-0.3 137.04-1.05 136.74-2.95L136.74-2.95Q135.24-1.4 133.19-0.38 131.14 0.65 128.94 0.65L128.94 0.65Q126.19 0.65 124.52-0.48 122.84-1.6 122.12-3.58 121.39-5.55 121.39-8.15L121.39-8.15 121.39-21.95 120.74-24.85ZM157.34-25.45L157.34-25.45Q159.04-25.45 160.79-25.05 162.54-24.65 163.99-23.75L163.99-23.75 162.39-20.35Q161.34-21.2 159.99-21.65 158.64-22.1 157.34-22.1L157.34-22.1Q155.59-22.1 154.29-21.33 152.99-20.55 152.99-18.9L152.99-18.9Q152.99-17.15 154.14-16.3 155.29-15.45 156.94-14.7L156.94-14.7Q158.19-14.1 159.46-13.5 160.74-12.9 161.84-12.05 162.94-11.2 163.61-9.95 164.29-8.7 164.29-6.85L164.29-6.85Q164.29-4.3 163.01-2.63 161.74-0.95 159.71-0.15 157.69 0.65 155.39 0.65L155.39 0.65Q153.39 0.65 151.31 0.1 149.24-0.45 147.54-1.45L147.54-1.45 149.39-4.7Q150.59-3.85 152.06-3.28 153.54-2.7 154.99-2.7L154.99-2.7Q156.79-2.7 158.16-3.58 159.54-4.45 159.54-6.25L159.54-6.25Q159.54-7.45 158.79-8.25 158.04-9.05 156.89-9.68 155.74-10.3 154.49-10.85L154.49-10.85Q152.99-11.55 151.54-12.4 150.09-13.25 149.16-14.6 148.24-15.95 148.24-18.1L148.24-18.1Q148.24-20.55 149.56-22.18 150.89-23.8 152.96-24.63 155.04-25.45 157.34-25.45ZM169.84-38.15L175.04-38.15 175.04 0 170.49 0 170.49-35.3 169.84-38.15ZM191.68-25.45L191.68-25.45Q195.63-25.45 197.68-23.33 199.73-21.2 199.73-17.25L199.73-17.25 199.73-5.15Q199.73-4 200.13-3.6 200.53-3.2 201.13-3.2L201.13-3.2Q201.58-3.2 202.08-3.33 202.58-3.45 203.03-3.65L203.03-3.65 203.93-0.8Q203.08-0.3 201.83 0.08 200.58 0.45 199.28 0.45L199.28 0.45Q197.88 0.45 196.83-0.28 195.78-1 195.48-2.95L195.48-2.95Q194.03-1.3 192.11-0.38 190.18 0.55 187.98 0.55L187.98 0.55Q185.03 0.55 183.06-1.18 181.08-2.9 181.08-5.95L181.08-5.95Q181.08-8.8 182.43-10.5 183.78-12.2 185.96-13.08 188.13-13.95 190.58-14.25 193.03-14.55 195.18-14.55L195.18-14.55 195.18-17.35Q195.18-19.4 194.33-20.7 193.48-22 191.13-22L191.13-22Q189.28-22 187.56-21.23 185.83-20.45 184.18-19.05L184.18-19.05 182.03-22.25Q184.13-23.85 186.61-24.65 189.08-25.45 191.68-25.45ZM195.18-9.6L195.18-11.1Q193.88-11.1 192.28-11 190.68-10.9 189.18-10.43 187.68-9.95 186.71-8.95 185.73-7.95 185.73-6.2L185.73-6.2Q185.73-4.65 186.83-3.93 187.93-3.2 189.48-3.2L189.48-3.2Q191.18-3.2 192.46-4.15 193.73-5.1 194.46-6.58 195.18-8.05 195.18-9.6L195.18-9.6ZM206.03-24.75L210.93-25.3Q211.88-23.05 212.08-20.55L212.08-20.55Q213.38-22.6 215.58-23.95 217.78-25.3 220.28-25.3L220.28-25.3 219.28-20.6Q216.93-20.6 215.23-19.38 213.53-18.15 212.18-16.15L212.18-16.15 212.18 0 207.63 0 207.63-18.05Q207.63-19 207.48-20.28 207.33-21.55 206.98-22.75 206.63-23.95 206.03-24.75L206.03-24.75ZM233.33-25.45L233.33-25.45Q235.03-25.45 236.78-25.05 238.53-24.65 239.98-23.75L239.98-23.75 238.38-20.35Q237.33-21.2 235.98-21.65 234.63-22.1 233.33-22.1L233.33-22.1Q231.58-22.1 230.28-21.33 228.98-20.55 228.98-18.9L228.98-18.9Q228.98-17.15 230.13-16.3 231.28-15.45 232.93-14.7L232.93-14.7Q234.18-14.1 235.45-13.5 236.73-12.9 237.83-12.05 238.93-11.2 239.6-9.95 240.28-8.7 240.28-6.85L240.28-6.85Q240.28-4.3 239-2.63 237.73-0.95 235.7-0.15 233.68 0.65 231.38 0.65L231.38 0.65Q229.38 0.65 227.3 0.1 225.23-0.45 223.53-1.45L223.53-1.45 225.38-4.7Q226.58-3.85 228.05-3.28 229.53-2.7 230.98-2.7L230.98-2.7Q232.78-2.7 234.15-3.58 235.53-4.45 235.53-6.25L235.53-6.25Q235.53-7.45 234.78-8.25 234.03-9.05 232.88-9.68 231.73-10.3 230.48-10.85L230.48-10.85Q228.98-11.55 227.53-12.4 226.08-13.25 225.15-14.6 224.23-15.95 224.23-18.1L224.23-18.1Q224.23-20.55 225.55-22.18 226.88-23.8 228.95-24.63 231.03-25.45 233.33-25.45ZM254.23-25.45L254.23-25.45Q255.93-25.45 257.68-25.05 259.43-24.65 260.88-23.75L260.88-23.75 259.28-20.35Q258.23-21.2 256.88-21.65 255.53-22.1 254.23-22.1L254.23-22.1Q252.48-22.1 251.18-21.33 249.88-20.55 249.88-18.9L249.88-18.9Q249.88-17.15 251.03-16.3 252.18-15.45 253.83-14.7L253.83-14.7Q255.08-14.1 256.35-13.5 257.63-12.9 258.73-12.05 259.83-11.2 260.5-9.95 261.18-8.7 261.18-6.85L261.18-6.85Q261.18-4.3 259.9-2.63 258.63-0.95 256.6-0.15 254.58 0.65 252.28 0.65L252.28 0.65Q250.28 0.65 248.2 0.1 246.13-0.45 244.43-1.45L244.43-1.45 246.28-4.7Q247.48-3.85 248.95-3.28 250.43-2.7 251.88-2.7L251.88-2.7Q253.68-2.7 255.05-3.58 256.43-4.45 256.43-6.25L256.43-6.25Q256.43-7.45 255.68-8.25 254.93-9.05 253.78-9.68 252.63-10.3 251.38-10.85L251.38-10.85Q249.88-11.55 248.43-12.4 246.98-13.25 246.05-14.6 245.13-15.95 245.13-18.1L245.13-18.1Q245.13-20.55 246.45-22.18 247.78-23.8 249.85-24.63 251.93-25.45 254.23-25.45ZM276.82 0.65L276.82 0.65Q273.17 0.65 270.65-1.15 268.12-2.95 266.85-5.9 265.57-8.85 265.57-12.25L265.57-12.25Q265.57-15.65 266.95-18.68 268.32-21.7 270.92-23.58 273.52-25.45 277.12-25.45L277.12-25.45Q280.82-25.45 283.35-23.68 285.87-21.9 287.15-18.95 288.42-16 288.42-12.55L288.42-12.55Q288.42-9.1 287.07-6.1 285.72-3.1 283.12-1.23 280.52 0.65 276.82 0.65ZM276.87-2.7L276.87-2.7Q278.77-2.7 280.05-3.6 281.32-4.5 282.1-5.98 282.87-7.45 283.2-9.15 283.52-10.85 283.52-12.4L283.52-12.4Q283.52-14 283.25-15.7 282.97-17.4 282.25-18.85 281.52-20.3 280.25-21.2 278.97-22.1 277.07-22.1L277.07-22.1Q275.17-22.1 273.9-21.18 272.62-20.25 271.87-18.78 271.12-17.3 270.77-15.63 270.42-13.95 270.42-12.4L270.42-12.4Q270.42-10.9 270.75-9.2 271.07-7.5 271.8-6.03 272.52-4.55 273.77-3.63 275.02-2.7 276.87-2.7ZM292.42-24.65L297.37-25.3Q297.72-24.45 297.95-23.58 298.17-22.7 298.27-21.8L298.27-21.8Q299.77-23.25 301.82-24.35 303.87-25.45 305.97-25.45L305.97-25.45Q308.77-25.45 310.42-24.33 312.07-23.2 312.82-21.23 313.57-19.25 313.57-16.65L313.57-16.65 313.57 0 309.02 0 309.02-15.45Q309.02-16.9 308.82-18.32 308.62-19.75 307.8-20.65 306.97-21.55 305.07-21.55L305.07-21.55Q303.97-21.55 302.75-21.08 301.52-20.6 300.45-19.88 299.37-19.15 298.57-18.35L298.57-18.35 298.57 0 294.07 0 294.07-17.65Q294.07-18.6 293.92-19.93 293.77-21.25 293.42-22.55 293.07-23.85 292.42-24.65L292.42-24.65ZM326.27-2.9L326.27-2.9Q326.27-1.5 325.27-0.5 324.27 0.5 322.87 0.5L322.87 0.5Q321.47 0.5 320.44-0.5 319.42-1.5 319.42-2.9L319.42-2.9Q319.42-4.35 320.42-5.33 321.42-6.3 322.87-6.3L322.87-6.3Q324.27-6.3 325.27-5.3 326.27-4.3 326.27-2.9ZM331.17-24.65L336.12-25.3Q336.47-24.45 336.69-23.58 336.92-22.7 337.02-21.8L337.02-21.8Q338.52-23.25 340.57-24.35 342.62-25.45 344.72-25.45L344.72-25.45Q347.52-25.45 349.17-24.33 350.82-23.2 351.57-21.23 352.32-19.25 352.32-16.65L352.32-16.65 352.32 0 347.77 0 347.77-15.45Q347.77-16.9 347.57-18.32 347.37-19.75 346.54-20.65 345.72-21.55 343.82-21.55L343.82-21.55Q342.72-21.55 341.49-21.08 340.27-20.6 339.19-19.88 338.12-19.15 337.32-18.35L337.32-18.35 337.32 0 332.82 0 332.82-17.65Q332.82-18.6 332.67-19.93 332.52-21.25 332.17-22.55 331.82-23.85 331.17-24.65L331.17-24.65ZM369.66-25.45L369.66-25.45Q372.76-25.45 374.84-24.18 376.91-22.9 377.96-20.68 379.01-18.45 379.01-15.6L379.01-15.6Q379.01-14.9 378.94-14.15 378.86-13.4 378.71-12.55L378.71-12.55 363.01-12.55Q363.01-8 365.09-5.5 367.16-3 370.56-3L370.56-3Q372.01-3 373.61-3.45 375.21-3.9 376.91-4.85L376.91-4.85 378.46-2.15Q376.76-0.75 374.46-0.05 372.16 0.65 369.96 0.65L369.96 0.65Q366.06 0.65 363.44-1.15 360.81-2.95 359.51-5.9 358.21-8.85 358.21-12.15L358.21-12.15Q358.21-14.7 358.94-17.05 359.66-19.4 361.11-21.33 362.56-23.25 364.69-24.35 366.81-25.45 369.66-25.45ZM369.31-22.1L369.31-22.1Q367.61-22.1 366.34-21.18 365.06-20.25 364.31-18.8 363.56-17.35 363.31-15.85L363.31-15.85 374.26-15.85Q374.36-17.8 373.76-19.2 373.16-20.6 372.04-21.35 370.91-22.1 369.31-22.1ZM388.01-32L391.31-32Q390.96-30.25 390.69-28.43 390.41-26.6 390.31-24.85L390.31-24.85 396.71-24.85 395.86-21.55 390.31-21.55 390.31-6.1Q390.31-5.2 390.51-4.48 390.71-3.75 391.26-3.33 391.81-2.9 392.86-2.9L392.86-2.9Q393.66-2.9 394.46-3.05 395.26-3.2 396.01-3.4L396.01-3.4 396.71-0.4Q395.46-0.05 394.24 0.25 393.01 0.55 391.56 0.55L391.56 0.55Q388.36 0.55 387.06-1.13 385.76-2.8 385.76-5.9L385.76-5.9 385.76-21.55 381.96-21.55 381.96-24.2Q383.96-24.25 385.16-25.53 386.36-26.8 387.01-28.6 387.66-30.4 388.01-32L388.01-32Z" opacity="1" transform="matrix(1,0,0,1,0,0)" fill="#61777f" class="wordmark-text-0" data-fill-palette-color="primary" id="text-0"></path></svg></g></svg></g></svg></g></svg></g><g transform="matrix(1,0,0,1,140.5676993172414,0)"><svg viewBox="0 0 114.38460136551718 114.38460136551718" height="114.38460136551718" width="114.38460136551718"><g><svg></svg></g><g id="icon-0"><svg viewBox="0 0 114.38460136551718 114.38460136551718" height="114.38460136551718" width="114.38460136551718"><g><rect width="104.00525790827581" height="104.00525790827581" x="5.189671728620688" y="5.189671728620688" fill="#c8c8c8" data-fill-palette-color="accent"></rect><rect width="104.00525790827581" height="104.00525790827581" x="1.7763568394002505e-15" y="10.379343457241374" fill="#c8c8c8" opacity="0.5" data-fill-palette-color="accent"></rect></g><g transform="matrix(1,0,0,1,14.827633510344818,14.827633510344818)"><svg viewBox="0 0 84.72933434482755 84.72933434482755" height="84.72933434482755" width="84.72933434482755"><g><svg xmlns="http://www.w3.org/2000/svg" xmlns:xlink="http://www.w3.org/1999/xlink" version="1.1" x="0" y="0" viewBox="3 3 58 58" style="enable-background:new 0 0 64 64;" xml:space="preserve" height="84.72933434482755" width="84.72933434482755" class="icon-cg-0" data-fill-palette-color="quaternary" id="cg-0"><g fill="#f8f8f8" data-fill-palette-color="quaternary"><path d="M46 37H30c-0.552 0-1 0.448-1 1v9c0 0.552 0.448 1 1 1h16c0.552 0 1-0.448 1-1v-9C47 37.448 46.552 37 46 37z" fill="#f8f8f8" data-fill-palette-color="quaternary"></path><path d="M49 33H15V9h26V7H13v28h3.5l6.5 8.667V57h28V29h-2V33zM49 47c0 1.654-1.346 3-3 3h-3v3h2v2H31v-2h2v-3h-3c-1.654 0-3-1.346-3-3v-9c0-1.654 1.346-3 3-3h16c1.654 0 3 1.346 3 3V47z" fill="#f8f8f8" data-fill-palette-color="quaternary"></path><path d="M26 15.09c-2.833 0.478-5 2.942-5 5.91 0 3.309 2.691 6 6 6 1.986 0 3.744-0.973 4.836-2.464L26 21.618V15.09z" fill="#f8f8f8" data-fill-palette-color="quaternary"></path><polygon points="17,43 20,43 17,39  " fill="#f8f8f8" data-fill-palette-color="quaternary"></polygon><rect x="35" y="50" width="6" height="3" fill="#f8f8f8" data-fill-palette-color="quaternary"></rect><path d="M15 37H3v24h18V45h-6V37zM5 39h8v2H5V39zM5 43h8v2H5V43zM17 49v8h2v2H5v-2h2v-4h2v4h2v-6h2v6h2v-8H17z" fill="#f8f8f8" data-fill-palette-color="quaternary"></path><path d="M28 15.09v5.292l4.738 2.369C32.907 22.197 33 21.609 33 21 33 18.033 30.833 15.569 28 15.09z" fill="#f8f8f8" data-fill-palette-color="quaternary"></path><polygon points="57,5 57,9 60,9  " fill="#f8f8f8" data-fill-palette-color="quaternary"></polygon><path d="M55 11V3H43v24h18V11H55zM45 5h8v2h-8V5zM45 9h8v2h-8V9zM59 25H45V13h14V25z" fill="#f8f8f8" data-fill-palette-color="quaternary"></path><path d="M17 11v20h30v-2h-6V11H17zM27 29c-4.411 0-8-3.589-8-8s3.589-8 8-8 8 3.589 8 8S31.411 29 27 29z" fill="#f8f8f8" data-fill-palette-color="quaternary"></path><rect x="47" y="15" width="10" height="8" fill="#f8f8f8" data-fill-palette-color="quaternary"></rect></g></svg></g></svg></g></svg></g></svg></g><g></g></svg></g><defs></defs></svg><rect width="395.52" height="175.93005395975652" fill="none" stroke="none" visibility="hidden"></rect></g></svg></g></svg>